HIERARCHY
ROOT Hips
{
	OFFSET 0.000000 0.000000 0.000000
	CHANNELS 6 Xposition Yposition Zposition Zrotation Yrotation Xrotation 
	JOINT LHipJoint
	{
		OFFSET 0.000000 0.000000 0.000000
		CHANNELS 3 Zrotation Yrotation Xrotation
		JOINT LeftUpLeg
		{
			OFFSET 1.363060 -1.794630 0.839290
			CHANNELS 3 Zrotation Yrotation Xrotation
			JOINT LeftLeg
			{
				OFFSET 2.448110 -6.726130 0.000000
				CHANNELS 3 Zrotation Yrotation Xrotation
				JOINT LeftFoot
				{
					OFFSET 2.562200 -7.039590 0.000000
					CHANNELS 3 Zrotation Yrotation Xrotation
					JOINT LeftToeBase
					{
						OFFSET 0.157640 -0.433110 2.322550
						CHANNELS 3 Zrotation Yrotation Xrotation
						End Site
						{
							OFFSET 0.000000 0.000000 0.000000
						}
					}
				}
			}
		}
	}
	JOINT RHipJoint
	{
		OFFSET 0.000000 0.000000 0.000000
		CHANNELS 3 Zrotation Yrotation Xrotation
		JOINT RightUpLeg
		{
			OFFSET -1.305520 -1.794630 0.839290
			CHANNELS 3 Zrotation Yrotation Xrotation
			JOINT RightLeg
			{
				OFFSET -2.542530 -6.985550 0.000000
				CHANNELS 3 Zrotation Yrotation Xrotation
				JOINT RightFoot
				{
					OFFSET -2.568260 -7.056230 0.000000
					CHANNELS 3 Zrotation Yrotation Xrotation
					JOINT RightToeBase
					{
						OFFSET -0.164730 -0.452590 2.363150
						CHANNELS 3 Zrotation Yrotation Xrotation
						End Site
						{
							OFFSET 0.000000 0.000000 0.000000
						}
					}
				}
			}
		}
	}
	JOINT LowerBack
	{
		OFFSET 0.000000 0.000000 0.000000
		CHANNELS 3 Zrotation Yrotation Xrotation
		JOINT Spine
		{
			OFFSET 0.028270 2.035590 -0.193380
			CHANNELS 3 Zrotation Yrotation Xrotation
			JOINT Spine1
			{
				OFFSET 0.056720 2.048850 -0.042750
				CHANNELS 3 Zrotation Yrotation Xrotation
				JOINT Neck
				{
					OFFSET 0.000000 0.000000 0.000000
					CHANNELS 3 Zrotation Yrotation Xrotation
					JOINT Neck1
					{
						OFFSET -0.054170 1.746240 0.172020
						CHANNELS 3 Zrotation Yrotation Xrotation
						JOINT Head
						{
							OFFSET 0.104070 1.761360 -0.123970
							CHANNELS 3 Zrotation Yrotation Xrotation
							End Site
							{
								OFFSET 0.000000 0.000000 0.000000
							}
						}
					}
				}
				JOINT LeftShoulder
				{
					OFFSET 0.000000 0.000000 0.000000
					CHANNELS 3 Zrotation Yrotation Xrotation
					JOINT LeftArm
					{
						OFFSET 3.362410 1.200890 -0.311210
						CHANNELS 3 Zrotation Yrotation Xrotation
						JOINT LeftForeArm
						{
							OFFSET 4.983000 -0.000000 -0.000000
							CHANNELS 3 Zrotation Yrotation Xrotation
							JOINT LeftHand
							{
								OFFSET 3.483560 -0.000000 -0.000000
								CHANNELS 3 Zrotation Yrotation Xrotation
								JOINT LeftFingerBase
								{
									OFFSET 0.000000 0.000000 0.000000
									CHANNELS 3 Zrotation Yrotation Xrotation
									JOINT LeftHandIndex1
									{
										OFFSET 0.715260 -0.000000 -0.000000
										CHANNELS 3 Zrotation Yrotation Xrotation
										End Site
										{
											OFFSET 0.000000 0.000000 0.000000
										}
									}
								}
								JOINT LThumb
								{
									OFFSET 0.000000 0.000000 0.000000
									CHANNELS 3 Zrotation Yrotation Xrotation
									End Site
									{
										OFFSET 0.000000 0.000000 0.000000
									}
								}
							}
						}
					}
				}
				JOINT RightShoulder
				{
					OFFSET 0.000000 0.000000 0.000000
					CHANNELS 3 Zrotation Yrotation Xrotation
					JOINT RightArm
					{
						OFFSET -3.136600 1.374050 -0.404650
						CHANNELS 3 Zrotation Yrotation Xrotation
						JOINT RightForeArm
						{
							OFFSET -5.241900 -0.000000 -0.000000
							CHANNELS 3 Zrotation Yrotation Xrotation
							JOINT RightHand
							{
								OFFSET -3.444170 -0.000000 -0.000000
								CHANNELS 3 Zrotation Yrotation Xrotation
								JOINT RightFingerBase
								{
									OFFSET 0.000000 0.000000 0.000000
									CHANNELS 3 Zrotation Yrotation Xrotation
									JOINT RightHandIndex1
									{
										OFFSET -0.622530 -0.000000 -0.000000
										CHANNELS 3 Zrotation Yrotation Xrotation
										End Site
										{
											OFFSET 0.000000 0.000000 0.000000
										}
									}
								}
								JOINT RThumb
								{
									OFFSET 0.000000 0.000000 0.000000
									CHANNELS 3 Zrotation Yrotation Xrotation
									End Site
									{
										OFFSET 0.000000 0.000000 0.000000
									}
								}
							}
						}
					}
				}
			}
		}
	}
}
MOTION
Frames: 12
Frame Time: 0.008333
4.392797 16.835910 11.820929 0.726092 -50.191402 106.448255 -5.905319 -5.583870 -2.489670 -9.765796 8.859974 -34.411224 3.747295 13.768483 31.985936 4.226408 16.769814 55.230838 6.158300 14.580000 45.613700 6.106776 5.469485 -1.658192 16.797485 2.131739 -31.915722 -2.027437 -13.921623 30.661087 -4.243406 -19.996375 53.273259 -4.474200 -12.766000 38.498600 19.070993 3.713789 -13.176138 -2.582360 8.038112 -5.482087 -29.577979 1.968206 3.145214 5.603814 3.300364 -14.220527 5.093765 0.153272 23.693398 4.278600 -0.327700 21.797400 21.817681 -2.305420 0.661474 67.050327 -22.038452 -70.235847 12.772257 -25.038159 -3.451069 0.508678 -1.619035 -6.082633 1.234996 0.814710 0.039000 -7.125000 0.000000 0.000000 -20.403700 31.961600 6.898000 -25.128887 1.879873 5.653526 -46.481611 12.918342 -77.732398 -8.074592 22.476135 -3.680077 5.556714 7.270381 -35.690975 -30.569347 -4.205966 5.469100 7.125000 0.000000 0.000000 -10.879900 -38.402700 -1.793000 
4.426938 16.829059 11.771514 0.530165 -50.225341 106.361928 -5.996031 -5.733363 -2.608293 -9.588020 8.741962 -34.524248 3.403157 13.491760 31.125086 4.352862 16.489787 55.452847 6.081400 14.506800 45.307700 6.254211 5.576218 -1.724857 16.584082 2.368092 -32.027054 -1.722131 -13.649798 29.716743 -4.221622 -20.191108 53.227393 -4.427700 -12.708700 38.287700 18.880760 3.672377 -12.866426 -2.572249 8.001897 -5.444124 -29.653129 2.016235 3.096692 5.568799 3.316360 -14.218265 5.307030 0.192029 23.777643 4.577900 -0.384000 21.961200 21.999723 -2.496271 0.751233 67.283564 -22.239048 -70.594367 12.498046 -24.691456 -3.236063 0.308930 -1.630839 -6.512721 4.646537 1.142633 0.221900 -7.125000 0.000000 0.000000 -17.674600 32.416100 5.682800 -25.758276 2.087849 5.374897 -47.352565 12.434850 -90.549918 -4.169548 19.433088 -2.616884 3.881712 6.435810 -11.744417 -17.337656 -11.885212 6.985900 7.125000 0.000000 0.000000 5.252700 -48.425100 -0.444900 
4.467257 16.822433 11.724457 0.557137 -50.255788 106.032963 -6.086347 -5.884223 -2.738804 -9.395758 8.506080 -34.598762 3.102521 13.251852 30.359194 4.396991 16.346075 55.493805 6.012100 14.440000 45.030100 6.384766 5.672631 -1.795160 16.411759 2.445133 -32.179130 -1.456619 -13.391143 28.818068 -4.175567 -20.535105 53.165097 -4.497800 -12.794900 38.605300 18.848533 3.565759 -12.495979 -2.566657 7.854041 -5.423305 -29.639180 2.024237 3.156484 5.302249 3.258749 -14.367963 5.372070 0.142614 23.879252 4.773700 -0.483200 22.236300 21.972878 -2.504586 0.773973 67.416132 -22.407826 -70.834616 12.311857 -24.459303 -3.070414 0.118250 -1.637461 -7.042058 7.924756 1.472419 0.439900 -7.125000 0.000000 0.000000 -15.000300 32.862100 4.597000 -25.788504 2.087195 5.360040 -47.623275 12.637944 -91.642126 -3.834336 19.236370 -2.515097 3.939388 6.446957 -10.525375 -17.313112 -12.412758 7.201100 7.125000 0.000000 0.000000 5.485500 -49.077400 -0.553100 
4.496569 16.817379 11.675716 0.269251 -50.250911 105.961697 -6.124634 -6.035878 -2.871823 -9.297631 8.574548 -34.845426 2.804868 12.995191 29.625700 4.457907 16.053278 55.535957 5.850200 14.281600 44.377600 6.484937 5.792754 -1.877519 16.217782 2.823109 -32.295290 -1.140428 -13.116698 27.931147 -4.221578 -20.461539 53.205208 -4.518800 -12.820500 38.700100 18.800674 3.493783 -12.017467 -2.551925 7.765003 -5.397334 -29.568896 2.059636 3.188499 5.286760 3.337195 -14.408912 5.432958 0.256908 23.857793 4.841200 -0.448600 22.199700 22.002484 -2.473524 0.812656 67.324109 -22.370019 -70.829831 12.149238 -24.232305 -2.926715 -0.062445 -1.604600 -7.316558 10.950045 1.149208 0.547100 -7.125000 0.000000 0.000000 -12.396400 32.613700 3.838400 -25.785219 2.069945 5.350440 -47.792890 12.696248 -91.031346 -3.957513 19.394136 -2.503860 4.101026 6.472680 -12.092892 -18.425103 -12.062412 7.495000 7.125000 0.000000 0.000000 3.980800 -48.748400 -0.368600 
4.535427 16.811989 11.624167 0.092060 -50.265455 105.791740 -6.165085 -6.186623 -3.007171 -9.183275 8.531978 -35.038476 2.532466 12.759239 28.941146 4.484902 15.851065 55.509776 5.742500 14.174100 43.939200 6.580890 5.907135 -1.955647 16.026454 3.109688 -32.436282 -0.846431 -12.849383 27.086581 -4.255100 -20.401145 53.219308 -4.499300 -12.796700 38.612200 18.727491 3.419933 -11.570102 -2.539212 7.674005 -5.368954 -29.525913 2.095997 3.220300 5.190945 3.347941 -14.480367 5.506224 0.282310 23.885596 4.966900 -0.474400 22.298200 22.034006 -2.485128 0.848483 67.347305 -22.416137 -70.998463 11.952024 -23.986624 -2.782463 -0.239510 -1.566756 -7.631886 13.842925 0.929643 0.634200 -7.125000 0.000000 0.000000 -9.911100 32.439600 3.088200 -25.864225 2.086559 5.296294 -47.981869 12.685330 -92.406602 -3.564992 19.093409 -2.410614 3.922218 6.352984 -9.795313 -17.090418 -12.386648 7.069400 7.125000 0.000000 0.000000 5.792800 -48.982000 -0.570600 
4.574960 16.807047 11.572168 -0.093908 -50.284694 105.616754 -6.186106 -6.338072 -3.146578 -9.107222 8.524109 -35.267458 2.282761 12.538986 28.320045 4.489492 15.657074 55.424121 5.637000 14.067100 43.506800 6.658991 6.026286 -2.037231 15.831899 3.417052 -32.594200 -0.556668 -12.585907 26.281852 -4.312843 -20.234089 53.259412 -4.453300 -12.740300 38.404000 18.647570 3.346553 -11.092759 -2.526058 7.589110 -5.339233 -29.469723 2.140514 3.267617 5.101535 3.345555 -14.569268 5.557521 0.285982 23.899461 5.061900 -0.499000 22.381600 22.054157 -2.469123 0.873038 67.347525 -22.420578 -71.100173 11.780226 -23.770883 -2.657337 -0.410312 -1.520333 -7.958052 16.617330 0.624909 0.660400 -7.125000 0.000000 0.000000 -7.515700 32.148400 2.382000 -25.895270 2.082374 5.278481 -48.071399 12.677189 -92.393090 -3.537615 19.089001 -2.391571 3.908112 6.346691 -9.789703 -17.057104 -12.383056 7.050100 7.125000 0.000000 0.000000 5.838700 -48.968600 -0.573300 
4.614604 16.802218 11.519721 -0.283392 -50.307798 105.432954 -6.190198 -6.489037 -3.288199 -9.064647 8.552361 -35.525314 2.052080 12.330768 27.748874 4.483796 15.468759 55.309998 5.531900 13.958800 43.072700 6.721466 6.148844 -2.121306 15.636266 3.740855 -32.768092 -0.275832 -12.330609 25.521648 -4.391717 -19.991384 53.325938 -4.382700 -12.652900 38.082800 18.551743 3.281249 -10.593974 -2.513037 7.521054 -5.306384 -29.415992 2.198212 3.323300 5.033655 3.327787 -14.660530 5.593968 0.264548 23.900776 5.130600 -0.523100 22.443500 22.075755 -2.445408 0.892792 67.344583 -22.391825 -71.129360 11.637933 -23.588185 -2.550893 -0.574759 -1.469420 -8.314894 19.292016 0.289544 0.633200 -7.125000 0.000000 0.000000 -5.210600 31.796800 1.689200 -25.923634 2.076518 5.268929 -48.085267 12.622157 -92.091728 -3.587775 19.126573 -2.395439 3.879287 6.349838 -9.987780 -17.005272 -12.319365 7.002200 7.125000 0.000000 0.000000 5.879400 -48.884900 -0.565100 
4.654137 16.797276 11.466824 -0.452789 -50.333523 105.218950 -6.177846 -6.637352 -3.432757 -9.049531 8.599184 -35.805194 1.847255 12.141907 27.237166 4.462307 15.313559 55.162175 5.438100 13.860800 42.682500 6.771061 6.271393 -2.206898 15.443889 4.062400 -32.956598 -0.011802 -12.087334 24.801920 -4.481215 -19.750389 53.414000 -4.312500 -12.565000 37.761400 18.442829 3.218554 -10.080225 -2.500205 7.460872 -5.271521 -29.367540 2.263007 3.384727 4.982090 3.292833 -14.757224 5.607990 0.215582 23.894116 5.168400 -0.548900 22.495100 22.096896 -2.416384 0.908067 67.338591 -22.336052 -71.063038 11.534997 -23.449527 -2.465693 -0.732248 -1.418876 -8.715149 21.879988 -0.019303 0.573500 -7.125000 0.000000 0.000000 -2.993900 31.449400 0.993200 -25.947346 2.069966 5.267044 -48.044732 12.541408 -91.617447 -3.688542 19.191002 -2.416110 3.837709 6.355448 -10.271449 -16.916662 -12.219068 6.926000 7.125000 0.000000 0.000000 5.949600 -48.755200 -0.552800 
4.692883 16.791661 11.413141 -0.603059 -50.356996 104.983183 -6.146727 -6.782286 -3.580018 -9.057050 8.667812 -36.110011 1.666361 11.972494 26.784963 4.433771 15.170983 54.998961 5.338600 13.755300 42.265900 6.808166 6.393683 -2.293315 15.261211 4.385635 -33.158197 0.234739 -11.857598 24.121588 -4.581177 -19.530372 53.528759 -4.255500 -12.492800 37.498500 18.326118 3.159113 -9.564642 -2.488007 7.407488 -5.236064 -29.324166 2.332157 3.449565 4.945154 3.255312 -14.855883 5.606409 0.162253 23.880525 5.182700 -0.569500 22.528900 22.118279 -2.384483 0.922250 67.319358 -22.258010 -70.894800 11.473537 -23.356337 -2.400179 -0.891657 -1.365821 -9.129170 24.546890 -0.310265 0.483800 -7.125000 0.000000 0.000000 -0.728100 31.096800 0.247400 -25.966796 2.063148 5.269638 -47.978024 12.453045 -91.114839 -3.801805 19.257677 -2.442624 3.789701 6.350969 -10.468700 -16.771799 -12.099674 6.818200 7.125000 0.000000 0.000000 6.085000 -48.594900 -0.541400 
4.731292 16.785147 11.359121 -0.713998 -50.377209 104.709360 -6.098752 -6.922852 -3.730147 -9.080540 8.740889 -36.430926 1.510810 11.825352 26.393387 4.393041 15.055175 54.811475 5.230500 13.638800 41.809400 6.832945 6.514551 -2.379176 15.093440 4.687617 -33.376681 0.463228 -11.641860 23.483210 -4.693170 -19.327390 53.675433 -4.221000 -12.448800 37.338700 18.206027 3.097918 -9.056756 -2.475491 7.351677 -5.200808 -29.287128 2.397603 3.513240 4.938856 3.220494 -14.944335 5.585178 0.107687 23.862020 5.163100 -0.580600 22.542100 22.140125 -2.351218 0.937004 67.287039 -22.177273 -70.677244 11.444536 -23.304981 -2.353987 -1.047300 -1.322307 -9.481340 27.170438 -0.388660 0.473200 -7.125000 0.000000 0.000000 1.485600 30.971600 -0.509400 -25.978665 2.057625 5.276704 -47.901164 12.372577 -90.623418 -3.917088 19.323444 -2.471454 3.744207 6.337910 -10.555959 -16.607238 -11.982424 6.702600 7.125000 0.000000 0.000000 6.249300 -48.434300 -0.531300 
4.769139 16.777061 11.304427 -0.793946 -50.392927 104.410532 -6.032915 -7.057435 -3.882667 -9.121694 8.826890 -36.773290 1.381051 11.701103 26.061261 4.340016 14.971449 54.602676 5.115500 13.512700 41.319300 6.843466 6.633333 -2.463848 14.945555 4.971454 -33.613354 0.672539 -11.442852 22.891171 -4.810285 -19.150937 53.839757 -4.218100 -12.445100 37.325300 18.081631 3.034668 -8.568024 -2.462300 7.291415 -5.167473 -29.246203 2.455468 3.571433 4.959522 3.197330 -15.019916 5.544726 0.065118 23.843799 5.110700 -0.578900 22.542000 22.164672 -2.318594 0.954532 67.228914 -22.106029 -70.436565 11.440314 -23.288298 -2.326524 -1.190286 -1.285965 -9.744332 29.586516 -0.349848 0.519500 -7.125000 0.000000 0.000000 3.520300 30.977800 -1.208300 -25.982950 2.053454 5.285737 -47.842244 12.316819 -90.206161 -4.014934 19.379931 -2.492885 3.719535 6.303125 -10.521250 -16.489580 -11.833397 6.588400 7.125000 0.000000 0.000000 6.352100 -48.233200 -0.508600 
4.806089 16.767515 11.248947 -0.864839 -50.408098 104.116647 -5.947810 -7.186433 -4.037404 -9.190605 8.939648 -37.149102 1.274694 11.598228 25.785718 4.278328 14.910265 54.380309 4.992400 13.375200 40.789900 6.834501 6.753390 -2.547233 14.818551 5.241554 -33.879033 0.866548 -11.261245 22.355011 -4.939298 -18.945672 54.024514 -4.223900 -12.452500 37.352200 17.943193 2.972237 -8.112467 -2.448527 7.231605 -5.137501 -29.190902 2.504954 3.622130 5.001116 3.189662 -15.083898 5.496274 0.038723 23.830739 5.038400 -0.565500 22.543200 22.192695 -2.287796 0.974989 67.146930 -22.059392 -70.245131 11.440988 -23.288273 -2.311782 -1.313519 -1.258203 -9.850495 31.635472 -0.202060 0.637600 -7.125000 0.000000 0.000000 5.250600 31.120600 -1.787800 -25.982296 2.051217 5.295631 -47.802886 12.286255 -89.852628 -4.090635 19.421355 -2.503014 3.722088 6.249004 -10.398226 -16.449821 -11.650977 6.487500 7.125000 0.000000 0.000000 6.354100 -47.993300 -0.471000 
